<?xml version="1.0" encoding="iso-8859-1"?>
<!-- Generator: Adobe Illustrator 19.0.0, SVG Export Plug-In . SVG Version: 6.00 Build 0)  -->
<svg xmlns="http://www.w3.org/2000/svg" xmlns:xlink="http://www.w3.org/1999/xlink" version="1.1" id="Capa_1" x="0px" y="0px" viewBox="0 0 470 470" style="enable-background:new 0 0 470 470;" xml:space="preserve" width="512px" height="512px">
<g>
	<path d="M347.604,177.161l-62.878-39.879V87.97c3.424-0.695,6-3.721,6-7.349s-2.576-6.654-6-7.349V7.5c0-4.142-3.357-7.5-7.5-7.5   h-84.454c-4.143,0-7.5,3.358-7.5,7.5v65.772c-3.424,0.695-6,3.721-6,7.349s2.576,6.654,6,7.349v49.312l-62.878,39.879   c-12.192,7.732-21.291,25.09-20.713,39.517l8.569,214.01C111.119,452.365,129.474,470,151.168,470h167.663   c21.693,0,40.049-17.635,40.918-39.312l8.569-214.01C368.896,202.251,359.798,184.894,347.604,177.161z M125.239,430.087   l-0.546-13.625h220.613l-0.546,13.625C344.21,443.824,332.578,455,318.831,455H151.168   C137.421,455,125.789,443.824,125.239,430.087z M269.727,15v58.121h-69.454V15H269.727z M196.789,147.74   c2.169-1.375,3.483-3.765,3.483-6.333V88.121h69.454v53.286c0,2.568,1.314,4.958,3.483,6.333l66.361,42.088   c7.694,4.88,14.124,17.146,13.759,26.249l-0.57,14.226H147.263h-15.012H117.24l-0.57-14.226   c-0.365-9.104,6.064-21.37,13.758-26.249L196.789,147.74z M345.907,401.463H124.093l-6.253-156.16h234.32L345.907,401.463z" fill="#D80027"/>
	<path d="M222.772,147.81c4.143,0,7.5-3.358,7.5-7.5v-29.688c0-4.142-3.357-7.5-7.5-7.5s-7.5,3.358-7.5,7.5v29.688   C215.272,144.452,218.63,147.81,222.772,147.81z" fill="#D80027"/>
	<path d="M147.576,214.478l65.107-41.293c3.498-2.218,4.535-6.853,2.317-10.351c-2.22-3.498-6.855-4.534-10.351-2.316   l-66.008,41.864c-0.31,0.196-0.604,0.415-0.881,0.653c-2.831,2.441-5.662,7.843-6.06,11.561c-0.038,0.364-0.051,0.73-0.036,1.096   l0.585,14.612h15.012l-0.567-14.148C146.906,215.643,147.273,214.941,147.576,214.478z" fill="#D80027"/>
	<path d="M143.163,355.383c1.35,1.012,2.928,1.5,4.494,1.5c2.28,0,4.532-1.036,6.006-3l13.501-18.001l13.501,18.001   c1.474,1.965,3.726,3,6.006,3c1.566,0,3.146-0.489,4.494-1.5c3.313-2.485,3.985-7.187,1.5-10.5l-16.126-21.5l16.126-21.5   c2.485-3.313,1.813-8.015-1.5-10.5c-3.314-2.486-8.015-1.814-10.5,1.5l-13.501,18.001l-13.501-18.001   c-2.486-3.314-7.189-3.985-10.5-1.5c-3.313,2.485-3.985,7.187-1.5,10.5l16.126,21.5l-16.126,21.5   C139.178,348.196,139.85,352.897,143.163,355.383z" fill="#D80027"/>
	<path d="M210.998,355.383c1.35,1.012,2.928,1.5,4.494,1.5c2.28,0,4.532-1.036,6.006-3L235,335.882l13.501,18.001   c1.474,1.965,3.726,3,6.006,3c1.566,0,3.146-0.489,4.494-1.5c3.313-2.485,3.985-7.187,1.5-10.5l-16.126-21.5l16.126-21.5   c2.485-3.313,1.813-8.015-1.5-10.5c-3.314-2.486-8.015-1.814-10.5,1.5L235,310.883l-13.501-18.001   c-2.485-3.314-7.189-3.985-10.5-1.5c-3.313,2.485-3.985,7.187-1.5,10.5l16.126,21.5l-16.126,21.5   C207.013,348.196,207.685,352.897,210.998,355.383z" fill="#D80027"/>
	<path d="M278.833,355.383c1.35,1.012,2.928,1.5,4.494,1.5c2.28,0,4.532-1.036,6.006-3l13.501-18.001l13.501,18.001   c1.474,1.965,3.726,3,6.006,3c1.566,0,3.146-0.489,4.494-1.5c3.313-2.485,3.985-7.187,1.5-10.5l-16.126-21.5l16.126-21.5   c2.485-3.313,1.813-8.015-1.5-10.5c-3.314-2.486-8.015-1.814-10.5,1.5l-13.501,18.001l-13.501-18.001   c-2.485-3.314-7.188-3.985-10.5-1.5c-3.313,2.485-3.985,7.187-1.5,10.5l16.126,21.5l-16.126,21.5   C274.848,348.196,275.52,352.897,278.833,355.383z" fill="#D80027"/>
</g>
<g>
</g>
<g>
</g>
<g>
</g>
<g>
</g>
<g>
</g>
<g>
</g>
<g>
</g>
<g>
</g>
<g>
</g>
<g>
</g>
<g>
</g>
<g>
</g>
<g>
</g>
<g>
</g>
<g>
</g>
</svg>
